<?xml version="1.0" encoding="UTF-8"?>
<svg version="1.1" xmlns="http://www.w3.org/2000/svg" width="1008" height="308">
<path d="M0 0 C0.97343798 -0.00581376 1.94687596 -0.01162753 2.94981205 -0.01761746 C6.20733974 -0.03219983 9.46411188 -0.01833994 12.72163391 -0.00457001 C15.0823769 -0.00917959 17.44311701 -0.01553289 19.80385113 -0.02347898 C25.60845259 -0.03843642 31.41283432 -0.03479791 37.21743875 -0.02327592 C44.17247799 -0.01050872 51.12743356 -0.02098239 58.08246866 -0.03212357 C71.70895006 -0.05317939 85.33535642 -0.05136384 98.96184495 -0.03980792 C110.8866146 -0.02974482 122.81135674 -0.0271193 134.73612976 -0.0318985 C135.52719534 -0.03220404 136.31826092 -0.03250958 137.13329818 -0.03282438 C140.34450906 -0.03406974 143.55571992 -0.03534334 146.76693077 -0.03666343 C176.88920181 -0.04889883 207.01142507 -0.03780654 237.13368873 -0.01627585 C263.89423056 0.00270652 290.65469626 0.001008 317.41523743 -0.01811981 C347.48249003 -0.03953936 377.5497004 -0.0480311 407.61695957 -0.03567076 C410.82231203 -0.03438789 414.02766449 -0.03313653 417.23301697 -0.0318985 C418.02225373 -0.03158219 418.8114905 -0.03126588 419.62464353 -0.03093999 C431.54178138 -0.02639051 443.45888871 -0.03171041 455.37602234 -0.04181671 C468.92664753 -0.05325101 482.47718595 -0.0504003 496.02780032 -0.02869374 C502.94328517 -0.01798127 509.85862907 -0.01356329 516.7741127 -0.02729034 C523.10277931 -0.0391956 529.43114771 -0.03268197 535.7597872 -0.01138014 C538.05104643 -0.00690623 540.34233077 -0.00919793 542.63357389 -0.01888329 C545.74579066 -0.03103141 548.8569835 -0.01858709 551.96914673 0 C553.30635149 -0.014047 553.30635149 -0.014047 554.67057049 -0.02837777 C566.28577759 0.11045105 573.40699796 5.92578916 581.29707336 13.81586456 C585.83638205 21.04513395 586.42362036 29.02225394 586.36552429 37.35736847 C586.37254425 38.92768546 586.37254425 38.92768546 586.37970603 40.52972603 C586.39160546 44.01325792 586.38221838 47.49639273 586.37275696 50.97992706 C586.37682489 53.48731464 586.38216801 55.99470042 586.38868713 58.50208282 C586.40092407 64.59083621 586.39916417 70.67944423 586.39044921 76.76819944 C586.38365771 81.71925738 586.38276227 86.67028425 586.38602066 91.62134552 C586.38648036 92.32759587 586.38694006 93.03384622 586.38741369 93.76149809 C586.38837292 95.19649745 586.38934556 96.6314968 586.39033146 98.06649613 C586.39887397 111.50380448 586.38906914 124.94105129 586.37293036 138.37834954 C586.35952821 149.8933593 586.36185662 161.40827831 586.37568665 172.92328644 C586.39176263 186.31445495 586.39805011 199.70556963 586.38884985 213.09674644 C586.38789427 214.52629216 586.38695115 215.95583788 586.38602066 217.38538361 C586.38555783 218.08863884 586.38509501 218.79189407 586.38461816 219.51646006 C586.38203431 224.45817338 586.38638616 229.39985237 586.39345932 234.34156036 C586.40278062 240.99992591 586.39608809 247.65809425 586.37877655 254.31645203 C586.37481723 256.75689409 586.37593622 259.19735059 586.38256454 261.63778687 C586.39079179 264.97517099 586.38044361 268.31201097 586.36552429 271.64936066 C586.37556254 273.08956038 586.37556254 273.08956038 586.38580358 274.55885506 C586.29300839 285.29933464 583.75461838 292.63133589 576.25801086 300.37055206 C569.00265297 307.17712494 562.08061357 308.80516243 552.33829021 308.76063347 C551.36831377 308.76413954 550.39833732 308.76764562 549.39896765 308.77125794 C546.13534718 308.78059221 542.87190436 308.77564333 539.60827637 308.7707901 C537.25012498 308.77452533 534.89197483 308.77912634 532.53382665 308.78452075 C526.72404319 308.7954954 520.91430915 308.79711894 515.104517 308.79479904 C508.14563968 308.79252695 501.18678987 308.80180676 494.22792046 308.81135777 C479.79939101 308.83070737 465.37087575 308.83632635 450.94233485 308.83747189 C439.80077034 308.83839069 428.6592114 308.84250586 417.5176487 308.84887314 C414.31150749 308.8506682 411.10536627 308.85244783 407.89922506 308.85422289 C406.70366931 308.85488604 406.70366931 308.85488604 405.48396093 308.85556258 C383.06246703 308.86787227 360.64097508 308.87576357 338.21947765 308.87487602 C336.95126814 308.87482929 336.95126814 308.87482929 335.65743824 308.87478161 C331.37214867 308.87461539 327.08685911 308.87441731 322.80156954 308.87421219 C321.95048287 308.8741723 321.0993962 308.87413241 320.22251902 308.87409131 C318.50141423 308.87401044 316.78030945 308.87392684 315.05920466 308.87384053 C288.27901614 308.8726149 261.49887826 308.88762985 234.71870422 308.91498566 C204.63719667 308.94570104 174.55572239 308.96291849 144.47419816 308.96105921 C141.26711388 308.96090995 138.06002961 308.96081254 134.85294533 308.96075058 C134.06326906 308.96072727 133.2735928 308.96070396 132.45998695 308.96067995 C119.74753691 308.96061838 107.03513081 308.97339452 94.32269384 308.99061511 C81.54840479 309.00756169 68.77418007 309.00955307 55.999886 308.99639647 C49.07833996 308.98965225 42.15693927 308.98928062 35.23540878 309.00710297 C28.90108171 309.02277131 22.56704119 309.02003373 16.23272137 309.0025347 C13.93934938 308.99945106 11.64595634 309.00314816 9.35260918 309.01425485 C6.23751806 309.02834387 3.12343653 309.01781403 0.00837994 309.0011425 C-1.33011114 309.01604704 -1.33011114 309.01604704 -2.69564244 309.03125268 C-9.77216535 308.95107355 -15.52938802 307.02339248 -21.28495789 302.86273956 C-27.73289311 296.13729827 -31.13183446 289.2844341 -31.1468544 279.85554218 C-31.15069555 278.94607108 -31.15453669 278.03659998 -31.15849423 277.09956914 C-31.15762775 276.10930799 -31.15676127 275.11904684 -31.15586853 274.09877777 C-31.15883965 273.03983769 -31.16181077 271.98089761 -31.16487193 270.88986844 C-31.17355496 267.33565149 -31.17506685 263.78146824 -31.17655945 260.22724152 C-31.1811879 257.68118467 -31.1862126 255.13512852 -31.19160461 252.58907318 C-31.20472807 245.6674307 -31.21121034 238.74579931 -31.21561527 231.82414651 C-31.2183804 227.49977703 -31.22261826 223.17540977 -31.22711945 218.85104179 C-31.23931036 206.87118196 -31.24960987 194.89132391 -31.25299454 182.91145802 C-31.2532141 182.14507032 -31.25343367 181.37868262 -31.25365989 180.58907105 C-31.25387817 179.82087966 -31.25409644 179.05268828 -31.25432134 178.26121837 C-31.2547648 176.70464535 -31.25521136 175.14807234 -31.25566101 173.59149933 C-31.25588244 172.8193901 -31.25610387 172.04728087 -31.25633201 171.25177439 C-31.26027845 158.74609228 -31.27772857 146.24046849 -31.30102053 133.7348089 C-31.32475719 120.88635901 -31.33719745 108.03793835 -31.33836246 95.18946618 C-31.33927794 87.97920471 -31.34499828 80.76901924 -31.36318207 73.55877876 C-31.3802306 66.7749208 -31.3818184 59.99123143 -31.37304306 53.20734978 C-31.37227266 50.72014098 -31.37661576 48.23292444 -31.38650131 45.74573517 C-31.3992245 42.34460883 -31.39334146 38.94399266 -31.38291931 35.54286957 C-31.39097572 34.56376202 -31.39903212 33.58465448 -31.40733266 32.57587701 C-31.34517727 23.87476779 -29.97781079 15.69575751 -23.89042664 9.12836456 C-23.18659851 8.33688019 -22.48277039 7.54539581 -21.75761414 6.72992706 C-15.0822702 1.309776 -8.42859222 -0.08854022 0 0 Z " fill="#CE2027" transform="translate(31.015426635742188,-0.5033645629882813)"/>
<path d="M0 0 C0.9624765 0.0028299 1.924953 0.00565979 2.91659546 0.00857544 C5.95234285 0.01965672 8.9877812 0.0447379 12.0234375 0.0703125 C14.09765195 0.08035791 16.17187109 0.08948101 18.24609375 0.09765625 C23.29708617 0.11784407 28.34742112 0.15701499 33.3984375 0.1953125 C33.3984375 12.0753125 33.3984375 23.9553125 33.3984375 36.1953125 C23.7109375 36.0703125 23.7109375 36.0703125 20.68481445 36.01513672 C14.28587052 35.9172868 14.28587052 35.9172868 8.3984375 38.1953125 C5.52912046 41.99103656 5.52912046 41.99103656 5.3984375 51.1953125 C14.3084375 51.1953125 23.2184375 51.1953125 32.3984375 51.1953125 C32.8934375 57.1353125 32.8934375 57.1353125 33.3984375 63.1953125 C34.8215625 62.1434375 36.2446875 61.0915625 37.7109375 60.0078125 C57.07644085 46.48746813 80.90841078 44.63548798 103.7734375 48.1953125 C120.91038343 51.96614874 135.70062002 61.24619755 146.3984375 75.1953125 C147.0584375 76.5153125 147.7184375 77.8353125 148.3984375 79.1953125 C148.7284375 69.6253125 149.0584375 60.0553125 149.3984375 50.1953125 C165.8984375 50.1953125 182.3984375 50.1953125 199.3984375 50.1953125 C199.7284375 55.4753125 200.0584375 60.7553125 200.3984375 66.1953125 C201.7596875 64.6896875 203.1209375 63.1840625 204.5234375 61.6328125 C215.9809602 50.19151858 229.74244832 46.81195995 245.57299805 46.82177734 C256.18272067 47.080686 265.5236907 50.44732248 274.3984375 56.1953125 C275.2646875 56.7521875 276.1309375 57.3090625 277.0234375 57.8828125 C282.89881689 63.60357664 289.04757705 71.69849871 289.5859375 80.1328125 C289.5240625 80.8134375 289.4621875 81.4940625 289.3984375 82.1953125 C291.71996557 79.98499536 293.61512473 77.64238624 295.5234375 75.0703125 C307.7013277 59.44919347 323.68470893 49.88808952 343.3984375 47.1953125 C367.54006116 45.37458108 390.64942079 48.87809495 409.55078125 65.03515625 C420.707205 75.5063486 426.5500892 89.08676193 429.2109375 103.9453125 C429.3970459 104.94316772 429.3970459 104.94316772 429.58691406 105.96118164 C430.87937926 114.13440367 430.3984375 121.69591732 430.3984375 130.1953125 C397.7284375 130.1953125 365.0584375 130.1953125 331.3984375 130.1953125 C335.17753594 143.62052834 335.17753594 143.62052834 344.0234375 153.1328125 C351.50267253 156.47878607 361.77493971 156.67186728 369.56640625 154.18359375 C374.06808468 151.97739662 374.06808468 151.97739662 377.72163391 148.62992859 C379.95207219 146.7216415 381.23634321 146.83183144 384.14526367 146.85473633 C385.10603317 146.85496292 386.06680267 146.85518951 387.0566864 146.85542297 C388.60837273 146.87864876 388.60837273 146.87864876 390.19140625 146.90234375 C391.25257156 146.90658859 392.31373688 146.91083344 393.40705872 146.91520691 C396.80027515 146.93201544 400.19290022 146.96967231 403.5859375 147.0078125 C405.88475706 147.0228565 408.18358591 147.03654539 410.48242188 147.04882812 C416.12129592 147.08192605 421.75982447 147.1321472 427.3984375 147.1953125 C425.08501662 159.79484181 416.39250176 169.68806362 406.2109375 176.9453125 C386.42258526 190.4351454 360.72940072 192.77063404 337.59375 188.87890625 C318.36178351 184.76448799 303.76254381 175.10506134 292.3984375 159.1953125 C292.0684375 168.4353125 291.7384375 177.6753125 291.3984375 187.1953125 C273.9084375 187.1953125 256.4184375 187.1953125 238.3984375 187.1953125 C238.37265625 181.08 238.346875 174.9646875 238.3203125 168.6640625 C238.29513483 164.78120854 238.26879485 160.89843175 238.23828125 157.015625 C238.18999894 150.85774479 238.14593442 144.70004331 238.12744141 138.54199219 C238.1122556 133.57509653 238.07777567 128.60866963 238.03012848 123.64198303 C238.01533456 121.75069766 238.00739763 119.85934536 238.00655365 117.96800232 C238.00417623 115.31084699 237.97703512 112.65497898 237.94433594 109.99804688 C237.9493663 109.22264557 237.95439667 108.44724426 237.95957947 107.64834595 C237.85497724 102.12521216 236.49892937 97.80635665 233.3984375 93.1953125 C228.87894909 89.57972178 223.88849406 89.68270246 218.3046875 89.85546875 C213.24975021 90.44657029 210.173574 91.97523317 206.90234375 96.06640625 C202.77157634 102.25670642 202.25112936 107.74757495 202.19311523 115.10668945 C202.18321564 115.88770523 202.17331604 116.66872101 202.16311646 117.47340393 C202.13164183 120.04343684 202.1067998 122.6134882 202.08203125 125.18359375 C202.06144959 126.97007211 202.0404528 128.75654572 202.01905823 130.54301453 C201.96396275 135.23650263 201.91449841 139.93003377 201.86621094 144.62359619 C201.80705362 150.25964294 201.74089477 155.89561133 201.67591095 161.53159332 C201.57805907 170.08611838 201.48909523 178.64069455 201.3984375 187.1953125 C184.2384375 187.1953125 167.0784375 187.1953125 149.3984375 187.1953125 C149.0684375 177.6253125 148.7384375 168.0553125 148.3984375 158.1953125 C146.4184375 161.1653125 144.4384375 164.1353125 142.3984375 167.1953125 C130.21356823 181.09033886 112.72847219 188.76854223 94.3984375 190.1953125 C69.92789376 191.37210033 48.34313478 187.91122186 29.3984375 171.1953125 C14.14203015 155.7225022 10.15349231 136.5921333 10.14746094 115.75976562 C10.26110263 103.94791711 12.07304034 93.84610683 17.3984375 83.1953125 C13.7684375 83.1953125 10.1384375 83.1953125 6.3984375 83.1953125 C6.3984375 117.5153125 6.3984375 151.8353125 6.3984375 187.1953125 C-11.0915625 187.1953125 -28.5815625 187.1953125 -46.6015625 187.1953125 C-46.6015625 152.8753125 -46.6015625 118.5553125 -46.6015625 83.1953125 C-53.5315625 83.1953125 -60.4615625 83.1953125 -67.6015625 83.1953125 C-67.6015625 72.3053125 -67.6015625 61.4153125 -67.6015625 50.1953125 C-60.6715625 50.1953125 -53.7415625 50.1953125 -46.6015625 50.1953125 C-46.6634375 48.7103125 -46.7253125 47.2253125 -46.7890625 45.6953125 C-46.71862622 32.04828409 -44.32265448 21.17892161 -34.6484375 11.17578125 C-24.6021198 1.78207867 -13.40143251 -0.15187984 0 0 Z " fill="#FEFDFD" transform="translate(92.6015625,60.8046875)"/>
<path d="M0 0 C7.25602207 6.00280491 12.08013516 12.48016759 16 21 C16.37769531 21.75410156 16.75539063 22.50820312 17.14453125 23.28515625 C25.6179229 41.78698146 25.04823747 65.2820445 18.93359375 84.3203125 C13.68018092 97.87862548 4.85033052 108.94755632 -8.5546875 115.03515625 C-20.40815459 119.71216323 -34.11115707 119.50753232 -46.08203125 115.34375 C-52.00277693 112.6171951 -56.43436734 108.56563266 -61 104 C-61.33 120.5 -61.66 137 -62 154 C-75.2 154 -88.4 154 -102 154 C-102 101.53 -102 49.06 -102 -5 C-89.46 -5 -76.92 -5 -64 -5 C-63.505 0.445 -63.505 0.445 -63 6 C-61.88625 4.783125 -60.7725 3.56625 -59.625 2.3125 C-43.93894059 -13.31822939 -17.43663338 -12.42851763 0 0 Z M-57.4375 30.6875 C-64.4113964 41.37553952 -64.29010274 54.34322365 -62.4609375 66.6171875 C-60.66184285 74.54506614 -57.87153457 80.30724468 -51 85 C-45.10791021 87.74832376 -39.02074567 88.02584093 -32.71875 86.41796875 C-26.1283792 83.64240874 -22.91896877 78.13028043 -20 71.84765625 C-15.45860424 60.47233322 -15.55445561 47.37067529 -20 36 C-22.99628819 29.88386535 -26.46278767 25.57209437 -32.8125 22.75 C-42.45733683 20.48062663 -51.01107284 22.82589059 -57.4375 30.6875 Z " fill="#070A0F" transform="translate(735,103)"/>
<path d="M0 0 C7.62394575 6.98340932 10.76227326 14.8693298 12 25 C12.09530157 27.46974978 12.14503244 29.94153066 12.15771484 32.41308594 C12.16279556 33.11820313 12.16787628 33.82332031 12.17311096 34.54980469 C12.18374497 36.06932113 12.19239197 37.58885255 12.19923019 39.10839081 C12.21112884 41.52320717 12.23060893 43.93785333 12.25234985 46.3526001 C12.31359576 53.21450034 12.36788487 60.07637993 12.40136719 66.93847656 C12.42245164 71.14830156 12.45785937 75.35780926 12.50212479 79.56745148 C12.51617164 81.16040537 12.5249813 82.75341531 12.52817917 84.34642792 C12.54628461 92.50241061 12.77963736 100.06053191 15.36050415 107.89898682 C16 110 16 110 16 113 C2.8 113 -10.4 113 -24 113 C-24.99 110.03 -25.98 107.06 -27 104 C-27.65484375 104.45890625 -28.3096875 104.9178125 -28.984375 105.390625 C-43.41281545 115.09110191 -59.34362901 117.95751593 -76.4609375 115.50390625 C-87.3009895 113.03772475 -95.69912955 108.35885498 -102 99 C-106.9422946 89.17109862 -107.62496619 78.07860489 -104.75 67.5 C-101.44468966 58.16287909 -94.948705 51.74751992 -86.1875 47.3125 C-73.18944671 41.87145444 -58.37724584 40.44516876 -44.54052734 38.48217773 C-38.92382704 37.64626843 -33.99542839 36.77372354 -29 34 C-27.30129898 30.3308058 -26.70172965 28.19308141 -27.6875 24.25 C-30.10434863 20.10683092 -32.38838075 18.40353629 -37 17 C-44.40192919 15.47353211 -51.17597019 15.79056055 -57.8125 19.625 C-60.76925339 22.61515023 -60.76925339 22.61515023 -64 30 C-76.21 30 -88.42 30 -101 30 C-101 19.72941874 -98.41637729 10.41637729 -91 3 C-69.90866788 -15.60084272 -22.56503695 -17.92773063 0 0 Z M-41.125 60.75 C-42.24132812 61.00265625 -43.35765625 61.2553125 -44.5078125 61.515625 C-55.57515423 64.07883339 -55.57515423 64.07883339 -64.5 70.75 C-66.34208617 74.74118669 -66.83549856 77.68469303 -66 82 C-64.13382683 85.95628711 -62.6253999 87.62476006 -58.875 89.875 C-52.10791042 92.30421164 -44.67625993 91.6266734 -38.0390625 89.09375 C-32.78333912 86.27458803 -30.06423966 81.89644626 -28.125 76.375 C-26.52435146 70.30938449 -26.73656317 64.22491464 -27 58 C-31.73667285 58 -36.53643086 59.67033667 -41.125 60.75 Z " fill="#070A0F" transform="translate(868,105)"/>
<path d="M0 0 C14.19 0 28.38 0 43 0 C48.78899036 19.20015137 54.48650491 38.42358232 60.10058594 57.67553711 C60.35245667 58.53866516 60.60432739 59.40179321 60.86383057 60.29107666 C61.33878667 61.91904938 61.81322034 63.54717465 62.28704834 65.17547607 C63.14986529 68.13331811 64.02555708 71.07667125 65 74 C65.36918045 72.7199987 65.36918045 72.7199987 65.74581909 71.41413879 C68.06779452 63.36522433 70.39222532 55.31702392 72.71940422 47.26961231 C73.91568873 43.13252321 75.11102819 38.99516597 76.30419922 34.85717773 C77.45609911 30.8624515 78.6104927 26.86845365 79.76660538 22.87494469 C80.20684482 21.35261298 80.64619112 19.83002268 81.08462143 18.30716896 C81.69970925 16.17128785 82.31799055 14.03635525 82.93701172 11.90161133 C83.46329666 10.07959953 83.46329666 10.07959953 84.00021362 8.22077942 C84.86499448 5.43491591 85.91665388 2.7083653 87 0 C100.53 0 114.06 0 128 0 C124.62488133 11.25039556 124.62488133 11.25039556 122.89379883 16.03662109 C122.50463791 17.11668427 122.11547699 18.19674744 121.71452332 19.30953979 C121.29955093 20.45262604 120.88457855 21.59571228 120.45703125 22.7734375 C120.0160762 23.99475372 119.57512115 25.21606995 119.12080383 26.47439575 C117.93348446 29.76256045 116.74279555 33.04949497 115.55130768 36.33615112 C114.30899801 39.76448809 113.06951483 43.1938469 111.82958984 46.62304688 C109.58979889 52.81590684 107.34697556 59.00766347 105.10258102 65.19885635 C103.57705567 69.40718064 102.05287297 73.615988 100.52978516 77.82519531 C98.72449902 82.81413296 96.91729592 87.80237048 95.10800171 92.78985596 C94.46695309 94.55723242 93.82632816 96.32476264 93.18618774 98.09246826 C91.14191671 103.7349444 89.07809282 109.36989904 87 115 C86.66899292 115.90153809 86.33798584 116.80307617 85.99694824 117.73193359 C84.9617583 120.54310497 83.91580915 123.35006456 82.8671875 126.15625 C82.55500275 127.00731323 82.24281799 127.85837646 81.9211731 128.73522949 C77.96546185 139.23568019 73.07707163 149.28111395 63 155 C55.51598244 158.10657333 48.50280899 159.15091333 40.41796875 159.09765625 C39.19670036 159.09553383 39.19670036 159.09553383 37.95075989 159.09336853 C35.36296844 159.08779317 32.77526508 159.07524524 30.1875 159.0625 C28.42773563 159.05748181 26.66796989 159.05291946 24.90820312 159.04882812 C20.60540791 159.03868481 16.302802 159.0191047 12 159 C12 148.44 12 137.88 12 127 C20.0625 126.6875 20.0625 126.6875 22.55883789 126.61206055 C28.2373596 126.33258834 33.11932795 125.37547157 37.63989258 121.64770508 C40.21508733 118.52797982 40.11673567 114.91962453 40 111 C39.28068586 107.23940159 38.04152932 103.72432061 36.75 100.125 C36.36303955 99.00569092 35.9760791 97.88638184 35.57739258 96.7331543 C28.12521479 75.3476026 19.97435851 54.19441085 12 33 C11.32055839 31.19290103 10.64119214 29.38577373 9.96191406 27.57861328 C9.64818344 26.74398056 9.33445282 25.90934784 9.01121521 25.04942322 C8.13780934 22.72535634 7.26481096 20.40113671 6.3918457 18.0769043 C5.36444404 15.34166189 4.33415205 12.60753693 3.30151367 9.87426758 C2.85783447 8.69630615 2.41415527 7.51834473 1.95703125 6.3046875 C1.57522705 5.29390137 1.19342285 4.28311523 0.80004883 3.24169922 C0 1 0 1 0 0 Z " fill="#070A0F" transform="translate(880,98)"/>
<path d="M0 0 C5.24123188 4.38552055 7.26129955 9.54554365 9 16 C9.495 17.485 9.495 17.485 10 19 C11.05203907 32.44143157 11.76106286 46.86859889 3.1875 58.0625 C-1.60204183 62.93523487 -6.21921211 64.17396416 -12.875 64.5625 C-19.27435307 64.38607673 -23.40819031 62.41632652 -28 58 C-34.61099145 49.91989934 -34.36417086 39.50117239 -34.375 29.625 C-34.41173828 27.87316406 -34.41173828 27.87316406 -34.44921875 26.0859375 C-34.48076969 16.704792 -33.08790295 9.03031692 -26.5625 2 C-19.21701139 -4.58614485 -8.52830327 -5.15366284 0 0 Z " fill="#CE2229" transform="translate(189,149)"/>
<path d="M0 0 C24.16349422 2.26744273 42.56982995 12.48110892 58.3125 30.75 C67.41641956 42.79873921 74.56558641 58.68203485 74 74 C67.65758005 75.15316726 61.43311296 75.09507063 55 75 C54.79246094 74.07960938 54.58492187 73.15921875 54.37109375 72.2109375 C50.03275372 54.38562408 42.31171961 39.07422513 26.43359375 28.97265625 C17.87533899 24.05579771 8.53610245 21.35058237 -1 19 C-1.02697137 16.39576408 -1.04682489 13.79180756 -1.0625 11.1875 C-1.07087891 10.44951172 -1.07925781 9.71152344 -1.08789062 8.95117188 C-1.10259828 5.70077932 -1.03531702 3.10595105 0 0 Z " fill="#FEFBFB" transform="translate(499,56)"/>
<path d="M0 0 C5.05037838 3.08327258 9.62400366 7.87201098 11.5 13.5 C11.5 15.81 11.5 18.12 11.5 20.5 C-4.34 20.5 -20.18 20.5 -36.5 20.5 C-35.34022053 11.2217642 -33.13131323 7.62493857 -26.37890625 1.796875 C-19.38042369 -3.03367845 -7.76975789 -3.44983356 0 0 Z " fill="#CE2128" transform="translate(461.5,143.5)"/>
<path d="M0 0 C8.45403468 -0.99027738 14.0939197 1.14093152 21 6 C29.47653632 13.00611675 34.74297265 21.21030829 37 32 C37 33.32 37 34.64 37 36 C30.73 36.33 24.46 36.66 18 37 C17.13375 35.1025 16.2675 33.205 15.375 31.25 C12.52659136 25.5798657 10.22418105 22.45072884 4.06640625 20.3359375 C2.39437267 19.8312996 0.69830044 19.4075921 -1 19 C-1.09507063 12.56688704 -1.15316726 6.34241995 0 0 Z " fill="#FEFAFA" transform="translate(501,92)"/>
</svg>
